<?xml version="1.0" standalone="no"?>
<!DOCTYPE svg PUBLIC "-//W3C//DTD SVG 20010904//EN"
 "http://www.w3.org/TR/2001/REC-SVG-20010904/DTD/svg10.dtd">
<svg version="1.0" xmlns="http://www.w3.org/2000/svg"
 width="134.000000pt" height="134.000000pt" viewBox="0 0 134.000000 134.000000"
 preserveAspectRatio="xMidYMid meet">

<g transform="translate(0.000000,134.000000) scale(0.100000,-0.100000)"
fill="#000000" stroke="none">
<path d="M775 1131 c-16 -10 -38 -27 -47 -37 -24 -27 -68 -126 -75 -168 -5
-34 -5 -34 41 -41 94 -15 220 28 245 81 27 59 7 124 -48 161 -41 28 -76 29
-116 4z"/>
<path d="M565 708 c-46 -17 -98 -56 -232 -172 -96 -83 -123 -113 -123 -132 l0
-25 45 31 c56 38 123 69 151 70 24 0 59 -35 69 -70 31 -102 111 -190 193 -209
93 -23 214 19 347 118 103 78 134 109 128 132 -3 10 -7 19 -10 19 -2 0 -31
-18 -64 -41 -112 -75 -167 -87 -218 -43 -29 24 -52 80 -81 201 -25 101 -114
153 -205 121z"/>
</g>
</svg>
